<svg width="16" height="19" viewBox="0 0 16 19" fill="none" xmlns="http://www.w3.org/2000/svg">
<path d="M16 9.5C16.0006 9.74811 15.9373 9.99215 15.8162 10.2084C15.6951 10.4246 15.5204 10.6057 15.3091 10.734L2.21091 18.7849C1.99008 18.9208 1.73715 18.9949 1.47825 18.9997C1.21935 19.0046 0.963868 18.9399 0.738182 18.8123C0.514645 18.6867 0.328433 18.5036 0.198694 18.2817C0.0689558 18.0599 0.000373507 17.8073 0 17.55V1.45005C0.000373507 1.19273 0.0689558 0.940147 0.198694 0.718285C0.328433 0.496422 0.514645 0.313285 0.738182 0.187707C0.963868 0.0601464 1.21935 -0.00456666 1.47825 0.000250593C1.73715 0.00506785 1.99008 0.0792409 2.21091 0.215109L15.3091 8.26597C15.5204 8.39428 15.6951 8.57536 15.8162 8.79161C15.9373 9.00785 16.0006 9.25189 16 9.5Z" fill="#48270C"/>
</svg>
